<?xml version="1.0" encoding="UTF-8"?> <svg xmlns="http://www.w3.org/2000/svg" xmlns:xlink="http://www.w3.org/1999/xlink" viewBox="0 0 1913.28 1704.54"><defs><style>.cls-1{fill:url(#Degradado_sin_nombre_379-3);}.cls-1,.cls-2,.cls-3,.cls-4,.cls-5,.cls-6,.cls-7,.cls-8,.cls-9,.cls-10{mix-blend-mode:lighten;}.cls-11{fill:url(#Degradado_sin_nombre_349);}.cls-11,.cls-12,.cls-13,.cls-14,.cls-15,.cls-16,.cls-17,.cls-18,.cls-19,.cls-20{mix-blend-mode:color-dodge;}.cls-3{fill:url(#Degradado_sin_nombre_319);}.cls-21{fill:url(#Degradado_sin_nombre_396-2);}.cls-12{fill:url(#Degradado_sin_nombre_355);}.cls-4{fill:url(#Degradado_sin_nombre_379-5);}.cls-22{isolation:isolate;}.cls-13{fill:url(#Degradado_sin_nombre_396-4);}.cls-5{fill:url(#Degradado_sin_nombre_303);}.cls-23{fill:url(#Degradado_sin_nombre_396);}.cls-14{fill:url(#Degradado_sin_nombre_261);}.cls-24{fill:url(#Degradado_sin_nombre_379-2);}.cls-15{fill:url(#Degradado_sin_nombre_391);}.cls-25{fill:url(#Degradado_sin_nombre_385-2);}.cls-16{fill:url(#Degradado_sin_nombre_363);}.cls-17{fill:url(#Degradado_sin_nombre_355-2);}.cls-26{fill:url(#Degradado_sin_nombre_385);}.cls-6{fill:url(#Degradado_sin_nombre_341-2);}.cls-7{fill:url(#Degradado_sin_nombre_379-4);}.cls-8{fill:url(#Degradado_sin_nombre_355-3);}.cls-27{clip-path:url(#clippath);}.cls-9{fill:url(#Degradado_sin_nombre_341);}.cls-28{fill:none;}.cls-29{fill:url(#Degradado_sin_nombre_379);}.cls-30{fill:url(#Degradado_sin_nombre_276);}.cls-19{fill:url(#Degradado_sin_nombre_313);}.cls-20{fill:url(#linear-gradient);}.cls-10{fill:url(#Degradado_sin_nombre_372);}.cls-31{opacity:.27;}.cls-32{fill:url(#Degradado_sin_nombre_396-3);}</style><clipPath id="clippath"><rect class="cls-28" x="0" width="1913.28" height="1704.54"></rect></clipPath><linearGradient id="Degradado_sin_nombre_396" x1="-1332.56" y1="7012.44" x2="-1074.07" y2="7012.44" gradientTransform="translate(8060.69 1146.84) rotate(85.51)" gradientUnits="userSpaceOnUse"><stop offset="0" stop-color="#d999ff"></stop><stop offset="1" stop-color="#d999ff" stop-opacity="0"></stop></linearGradient><linearGradient id="Degradado_sin_nombre_396-2" x1="-893.36" y1="6854.96" x2="-800.46" y2="6854.96" xlink:href="#Degradado_sin_nombre_396"></linearGradient><linearGradient id="Degradado_sin_nombre_379" x1="-1391.99" y1="6707.61" x2="-1372.27" y2="6768.98" gradientTransform="translate(8060.69 1146.84) rotate(85.51)" gradientUnits="userSpaceOnUse"><stop offset="0" stop-color="#289fdb"></stop><stop offset="1" stop-color="#289fdb" stop-opacity="0"></stop></linearGradient><linearGradient id="Degradado_sin_nombre_379-2" x1="-1597.02" y1="6816.33" x2="-1564.73" y2="6816.33" xlink:href="#Degradado_sin_nombre_379"></linearGradient><linearGradient id="Degradado_sin_nombre_396-3" x1="-837.21" y1="6917.26" x2="-735.07" y2="6917.26" xlink:href="#Degradado_sin_nombre_396"></linearGradient><linearGradient id="Degradado_sin_nombre_276" x1="-1669.55" y1="7093.69" x2="-1509.97" y2="7093.69" gradientTransform="translate(8060.69 1146.84) rotate(85.51)" gradientUnits="userSpaceOnUse"><stop offset="0" stop-color="#22b080" stop-opacity="0"></stop><stop offset="1" stop-color="#22b080"></stop></linearGradient><linearGradient id="Degradado_sin_nombre_385" x1="-272.54" y1="6882.75" x2="-417.18" y2="7211.48" gradientTransform="translate(8060.69 1146.84) rotate(85.51)" gradientUnits="userSpaceOnUse"><stop offset="0" stop-color="#fff" stop-opacity="0"></stop><stop offset="1" stop-color="#fff"></stop></linearGradient><linearGradient id="Degradado_sin_nombre_385-2" x1="-599.44" y1="7753.93" x2="-255.65" y2="7753.93" xlink:href="#Degradado_sin_nombre_385"></linearGradient><linearGradient id="Degradado_sin_nombre_303" x1="-1219.56" y1="6910.92" x2="-958.48" y2="6827.98" gradientTransform="translate(8060.69 1146.84) rotate(85.51)" gradientUnits="userSpaceOnUse"><stop offset="0" stop-color="#70f7ff"></stop><stop offset="1" stop-color="#70f7ff" stop-opacity="0"></stop></linearGradient><linearGradient id="Degradado_sin_nombre_355" x1="-1599.57" y1="6701.07" x2="-1399.05" y2="7037.47" gradientTransform="translate(8060.69 1146.84) rotate(85.51)" gradientUnits="userSpaceOnUse"><stop offset="0" stop-color="#d999ff" stop-opacity="0"></stop><stop offset="1" stop-color="#d999ff"></stop></linearGradient><linearGradient id="Degradado_sin_nombre_313" x1="-1255.64" y1="7031.52" x2="-864.77" y2="7031.52" gradientTransform="translate(8060.69 1146.84) rotate(85.51)" gradientUnits="userSpaceOnUse"><stop offset="0" stop-color="#61b8ff" stop-opacity="0"></stop><stop offset="1" stop-color="#61b8ff"></stop></linearGradient><linearGradient id="Degradado_sin_nombre_341" x1="-1458.37" y1="7060.77" x2="-947.41" y2="7060.77" gradientTransform="translate(8060.69 1146.84) rotate(85.51)" gradientUnits="userSpaceOnUse"><stop offset="0" stop-color="#289fdb" stop-opacity="0"></stop><stop offset="1" stop-color="#289fdb"></stop></linearGradient><linearGradient id="Degradado_sin_nombre_349" x1="-734.14" y1="7127.91" x2="-916.04" y2="7240.77" gradientTransform="translate(8060.69 1146.84) rotate(85.51)" gradientUnits="userSpaceOnUse"><stop offset="0" stop-color="#d999ff"></stop><stop offset="1" stop-color="#d999ff" stop-opacity="0"></stop></linearGradient><linearGradient id="Degradado_sin_nombre_319" x1="-1580.52" y1="7144.86" x2="-1064.29" y2="7144.86" gradientTransform="translate(8060.69 1146.84) rotate(85.51)" gradientUnits="userSpaceOnUse"><stop offset="0" stop-color="#188cc6" stop-opacity="0"></stop><stop offset="1" stop-color="#188cc6"></stop></linearGradient><linearGradient id="Degradado_sin_nombre_379-3" x1="-1731.19" y1="6732.82" x2="-1649.01" y2="6964.02" xlink:href="#Degradado_sin_nombre_379"></linearGradient><linearGradient id="Degradado_sin_nombre_379-4" x1="-1602.35" y1="7460.98" x2="-1457.58" y2="7526.79" xlink:href="#Degradado_sin_nombre_379"></linearGradient><linearGradient id="Degradado_sin_nombre_261" x1="-1853.13" y1="7370.19" x2="-1274.57" y2="7637.55" gradientTransform="translate(8060.69 1146.84) rotate(85.51)" gradientUnits="userSpaceOnUse"><stop offset="0" stop-color="#61b8ff" stop-opacity="0"></stop><stop offset=".98" stop-color="#61b8ff"></stop></linearGradient><linearGradient id="Degradado_sin_nombre_372" x1="-1175.29" y1="7623.53" x2="-784.52" y2="7623.53" gradientTransform="translate(8060.69 1146.84) rotate(85.51)" gradientUnits="userSpaceOnUse"><stop offset="0" stop-color="#5efff1" stop-opacity="0"></stop><stop offset="1" stop-color="#5efff1"></stop></linearGradient><linearGradient id="Degradado_sin_nombre_391" x1="-655.89" y1="7292.26" x2="-241.3" y2="7292.26" gradientTransform="translate(8060.69 1146.84) rotate(85.51)" gradientUnits="userSpaceOnUse"><stop offset="0" stop-color="#2453c6"></stop><stop offset="1" stop-color="#2453c6" stop-opacity="0"></stop></linearGradient><linearGradient id="Degradado_sin_nombre_396-4" x1="-397.21" y1="7369.41" x2="-207.12" y2="7369.41" xlink:href="#Degradado_sin_nombre_396"></linearGradient><linearGradient id="Degradado_sin_nombre_355-2" x1="-483.98" y1="7237.99" x2="-292.18" y2="7237.99" xlink:href="#Degradado_sin_nombre_355"></linearGradient><linearGradient id="linear-gradient" x1="-97.44" y1="6902.48" x2="-44.57" y2="6902.48" gradientTransform="translate(8060.69 1146.84) rotate(85.51)" gradientUnits="userSpaceOnUse"><stop offset="0" stop-color="#005fe8"></stop><stop offset="1" stop-color="#000"></stop></linearGradient><linearGradient id="Degradado_sin_nombre_363" x1="-1170.21" y1="7563.93" x2="-571.15" y2="7414.91" gradientTransform="translate(8060.69 1146.84) rotate(85.51)" gradientUnits="userSpaceOnUse"><stop offset="0" stop-color="#fff" stop-opacity="0"></stop><stop offset=".98" stop-color="#fff"></stop></linearGradient><linearGradient id="Degradado_sin_nombre_379-5" x1="-1430.39" y1="7794.53" x2="-529.39" y2="7608.78" xlink:href="#Degradado_sin_nombre_379"></linearGradient><linearGradient id="Degradado_sin_nombre_355-3" x1="-1498.12" y1="7967.51" x2="-828.51" y2="7967.51" xlink:href="#Degradado_sin_nombre_355"></linearGradient><linearGradient id="Degradado_sin_nombre_341-2" x1="-946.33" y1="7019.07" x2="-603.58" y2="7019.07" xlink:href="#Degradado_sin_nombre_341"></linearGradient></defs><g class="cls-22"><g id="Capa_2"><g id="Capa_1-2"><g class="cls-27"><g class="cls-31"><g class="cls-2"><path class="cls-23" d="m956.18,545.31c-4.78-60.88,5.62-122.59,30.86-179.5.2-.45.71-.64,1.15-.45.44.2.64.72.45,1.15-36.24,81.7-41.73,173.37-15.49,258.13.15.5-.12.96-.58,1.1-.46.14-.95-.11-1.1-.58-8.09-26.13-13.18-52.92-15.29-79.86Z"></path></g><g class="cls-2"><path class="cls-21" d="m1084.1,799.16c-.02-.23.05-.46.22-.64.32-.37.87-.4,1.24-.08,43.14,37.88,95.23,65.33,150.64,79.38.47.12.76.59.63,1.07-.12.46-.6.75-1.07.63-55.68-14.12-108.02-41.7-151.37-79.77-.17-.15-.28-.36-.29-.59Z"></path></g><g class="cls-2"><path class="cls-29" d="m1207.35,307.94c-.03-.33.14-.66.45-.83,17.73-9.85,36.53-17.44,55.9-22.58.47-.13.95.15,1.07.62.16.49-.15.95-.62,1.07-19.23,5.1-37.9,12.65-55.5,22.42-.42.24-.96.08-1.19-.34-.06-.11-.1-.23-.11-.36Z"></path></g><g class="cls-2"><path class="cls-24" d="m1098.44,122.84c-.03-.33.14-.65.44-.83,26.84-15.33,55.33-27.9,84.67-37.34.46-.15.95.11,1.1.57.15.5-.11.96-.57,1.1-29.23,9.41-57.6,21.92-84.34,37.19-.42.24-.95.1-1.19-.33-.07-.11-.1-.24-.11-.36Z"></path></g><g class="cls-18"><path class="cls-32" d="m1025.78,860.06c-.02-.23.05-.46.22-.64.32-.37.87-.4,1.24-.08,44.2,38.74,96.98,69.35,152.65,88.52.46.16.69.68.54,1.12-.16.46-.66.7-1.12.54-55.87-19.24-108.86-49.97-153.23-88.87-.17-.15-.28-.36-.29-.59Z"></path></g><g class="cls-18"><path class="cls-30" d="m790.05,201.98c-.01-.17.02-.35.12-.51,38.35-65.4,87.83-122.62,147.09-170.08.38-.3.93-.24,1.23.14.3.37.24.93-.14,1.23-59.09,47.33-108.43,104.39-146.67,169.6-.25.42-.78.56-1.2.31-.26-.15-.41-.41-.43-.69Z"></path></g><g class="cls-2"><path class="cls-26" d="m841.92,1286.37c-.01-.18.03-.36.13-.53.25-.41.79-.54,1.2-.29,102.54,62.08,218.35,103.78,334.92,120.58.48.07.8.52.74.99-.07.49-.52.81-.99.75-116.81-16.83-232.85-58.61-335.58-120.82-.25-.15-.4-.41-.42-.68Z"></path></g><g class="cls-18"><path class="cls-25" d="m168.85,1165.83c-.03-.33.14-.66.45-.83.42-.24.96-.08,1.19.34,66.84,119.5,152.48,228.12,254.55,322.88.36.32.38.88.05,1.23-.33.36-.88.38-1.24.05-102.2-94.88-187.95-203.65-254.88-323.3-.06-.12-.1-.24-.11-.36Z"></path></g><path class="cls-5" d="m1194.93,720.05c.28-.41.16-.96-.24-1.22-81.97-55.21-123.89-160.88-102.16-257.25.13,0,.24.05.37.04,2.2-.17,3.85-2.1,3.68-4.3s-2.11-3.85-4.3-3.67c-2.2.17-3.85,2.1-3.67,4.3.11,1.44,1.02,2.59,2.23,3.2-5.3,23.45-6.87,47.43-5.01,71.13,5.84,74.39,45.27,145.82,107.89,187.99.4.27.94.17,1.21-.23Zm-104.57-262.23c-.1-1.23.83-2.31,2.06-2.41,1.24-.1,2.32.83,2.42,2.06.1,1.23-.83,2.31-2.06,2.41-1.23.1-2.31-.83-2.41-2.06Z"></path><path class="cls-12" d="m952.8,318.85c-.07-.85-.45-1.58-.96-2.19,30.63-56.85,75.08-107.11,128.59-145.37,53.79-38.47,115.85-64.16,179.49-74.32.48-.08.91-.56.73-1-.08-.48-.53-.8-1-.73-63.9,10.2-126.23,36-180.23,74.62-53.64,38.36-98.22,88.74-128.97,145.71-.6-.27-1.24-.45-1.94-.4-2.2.17-3.85,2.1-3.67,4.3.17,2.2,2.1,3.85,4.3,3.67s3.84-2.1,3.67-4.3Zm-6.22.49c-.1-1.23.83-2.31,2.06-2.41s2.31.83,2.41,2.06c.1,1.23-.83,2.31-2.06,2.41s-2.31-.83-2.41-2.06Z"></path><path class="cls-19" d="m1040.72,826.36c-.17-2.19-2.1-3.84-4.3-3.66-.72.06-1.34.35-1.9.73-99.33-95.7-148.14-238.74-127.39-373.56.08-.5-.26-.92-.73-1-.48-.07-.92.25-1,.73-4.86,31.57-5.92,63.59-3.43,95.35,8.2,104.46,54.87,206.1,131.36,279.78-.39.68-.65,1.43-.59,2.26.17,2.2,2.1,3.85,4.3,3.67s3.85-2.1,3.67-4.3Zm-6.22.49c-.04-.49.18-.91.42-1.3.12-.04.26-.06.35-.16.1-.1.11-.25.15-.38.34-.26.68-.54,1.13-.58,1.23-.1,2.32.83,2.41,2.06s-.83,2.32-2.06,2.42-2.32-.83-2.41-2.07Z"></path><path class="cls-9" d="m940.11,751.36c-.17-2.2-2.1-3.84-4.3-3.67-.29.02-.54.15-.82.23-44.94-76.4-65.75-165.15-60.18-256.67,5.57-91.4,36.86-177.48,90.5-248.93.29-.4.21-.94-.18-1.23-.38-.29-.94-.21-1.23.18-53.84,71.72-85.26,158.13-90.85,249.87-1.35,22.2-1.16,44.22.55,65.96,5.36,68.23,25.66,133.5,59.86,191.67-.88.8-1.44,1.94-1.34,3.22.17,2.2,2.1,3.85,4.3,3.67,2.2-.17,3.85-2.1,3.67-4.3Zm-6.23.49c-.06-.72.28-1.31.77-1.76.18.02.37.02.54-.08.12-.07.16-.2.23-.32.19-.07.31-.25.53-.27,1.23-.1,2.32.83,2.41,2.07s-.83,2.32-2.06,2.42-2.32-.83-2.42-2.07Z"></path><path class="cls-11" d="m899.41,965.11c-.17-2.2-2.1-3.85-4.3-3.67-.71.06-1.32.34-1.88.71-51.07-49.84-92.77-108.04-123.93-173.01-.21-.44-.73-.62-1.17-.41-.33.16-.52.51-.49.86,0,.1.04.21.08.31,31.25,65.17,73.08,123.54,124.31,173.54-.4.68-.67,1.45-.6,2.3.17,2.19,2.1,3.84,4.3,3.66,2.2-.17,3.85-2.1,3.67-4.29Zm-6.22.49c-.04-.51.18-.95.44-1.35.11-.04.23-.05.32-.14.09-.09.09-.22.13-.33.34-.28.69-.56,1.16-.6,1.23-.1,2.32.83,2.41,2.07.1,1.23-.83,2.31-2.06,2.41-1.23.1-2.32-.83-2.41-2.06Z"></path><path class="cls-3" d="m768.12,650.61c-42.86-181,8.8-380.21,134.88-520.09.66.37,1.4.62,2.21.55,2.2-.17,3.85-2.1,3.67-4.3-.17-2.2-2.1-3.85-4.3-3.67-2.2.17-3.84,2.1-3.67,4.3.06.75.37,1.39.78,1.96-107.16,118.9-160.73,280.52-148.41,437.56,2.22,28.27,6.57,56.4,13.14,84.1.11.47.58.76,1.05.65.47-.11.82-.51.65-1.06ZM904.71,124.85c1.23-.1,2.31.83,2.41,2.06s-.83,2.31-2.06,2.41c-1.23.1-2.31-.83-2.41-2.06-.1-1.23.83-2.31,2.06-2.41Z"></path><path class="cls-1" d="m999.6,45.12c61.09-42.59,132.78-73.32,207.36-88.94.58,1.67,2.17,2.85,4.02,2.7,2.2-.17,3.85-2.1,3.67-4.3-.17-2.2-2.1-3.84-4.3-3.67-1.92.15-3.35,1.67-3.58,3.51-74.87,15.65-146.85,46.5-208.19,89.26-.26.18-.4.49-.37.79.01.15.06.3.15.43.28.39.82.49,1.22.22Zm210.89-92.46c1.23-.1,2.31.83,2.41,2.06s-.83,2.31-2.06,2.41c-1.23.1-2.31-.83-2.41-2.06s.83-2.31,2.06-2.41Z"></path><path class="cls-7" d="m444.89,274.14c13.7-47.94,31.68-95.15,53.42-140.34.44.12.89.2,1.37.17,2.2-.17,3.85-2.1,3.67-4.3s-2.1-3.85-4.3-3.67c-2.2.17-3.84,2.1-3.67,4.3.09,1.09.6,2.03,1.37,2.7-21.8,45.29-39.83,92.61-53.55,140.67-.03.1-.04.2-.03.31.03.35.27.67.64.77.47.13.95-.14,1.08-.6Zm52.25-143.98c-.1-1.23.83-2.31,2.06-2.41s2.31.83,2.41,2.06-.83,2.31-2.06,2.41-2.31-.83-2.41-2.06Z"></path><path class="cls-14" d="m362.18,477.26c-.13-1.62-1.22-2.93-2.66-3.45,5.95-219.2,93.26-430.11,252.52-609.95.32-.36.29-.91-.08-1.24-.36-.32-.92-.29-1.23.08C451.22,42.81,363.77,254.05,357.77,473.62c-2.14.23-3.73,2.11-3.56,4.27.17,2.2,2.1,3.85,4.3,3.67,2.2-.17,3.85-2.1,3.67-4.3Zm-6.22.49c-.1-1.23.83-2.31,2.06-2.41,1.23-.1,2.31.83,2.41,2.06s-.83,2.31-2.06,2.41c-1.23.1-2.31-.83-2.41-2.06Z"></path><path class="cls-10" d="m436.28,954.29c-.17-2.19-2.1-3.84-4.3-3.66-.16.01-.3.1-.46.13-56.49-115.47-90.49-245.31-98.43-375.43h0c-.04-.49-.45-.85-.93-.82-.48.03-.85.45-.82.93.35,5.77.75,11.53,1.21,17.3,9.78,124.55,43.31,248.21,97.38,358.75-1.05.79-1.73,2.03-1.62,3.44.17,2.2,2.1,3.85,4.3,3.67s3.85-2.1,3.67-4.3Zm-6.22.49c-.1-1.23.83-2.31,2.06-2.41s2.32.83,2.41,2.06-.83,2.32-2.06,2.42c-1.23.1-2.32-.83-2.41-2.07Z"></path><path class="cls-15" d="m1005.42,1458.46c.46.14.95-.11,1.1-.57.16-.48-.1-.95-.56-1.11-196.61-64.01-376.58-198.37-493.83-368.66.62-.77.98-1.75.89-2.81-.17-2.2-2.1-3.84-4.3-3.67-2.2.17-3.85,2.1-3.67,4.3s2.1,3.84,4.3,3.66c.51-.04.97-.19,1.4-.4,117.47,170.56,297.73,305.13,494.67,369.25Zm-498.62-372.65c-.1-1.24.83-2.32,2.06-2.42s2.32.83,2.41,2.07c.1,1.23-.83,2.31-2.06,2.41s-2.32-.83-2.41-2.06Z"></path><path class="cls-13" d="m811.83,1507.59c.22-.43.06-.95-.37-1.18-84.51-44.18-163.48-99.55-234.69-164.59-.11-.1-.25-.1-.39-.14.26-.58.42-1.21.37-1.88-.17-2.2-2.1-3.85-4.3-3.67-2.2.17-3.85,2.1-3.67,4.3.17,2.19,2.1,3.84,4.3,3.66.96-.08,1.78-.53,2.42-1.14.04.05.03.13.08.17,71.33,65.14,150.41,120.61,235.06,164.86.43.22.96.05,1.19-.38Zm-241.3-167.31c-.1-1.24.83-2.32,2.06-2.42,1.23-.1,2.31.83,2.41,2.07s-.83,2.31-2.06,2.41c-1.23.1-2.32-.83-2.41-2.06Z"></path><path class="cls-17" d="m947.45,1408.02c-.17-2.19-2.1-3.84-4.3-3.66-1.26.1-2.29.81-2.95,1.78-93.59-40.91-180.19-96.57-257.39-165.45-.36-.32-.92-.29-1.24.07-.17.18-.24.42-.22.65.02.21.12.43.29.59,77.36,69.03,164.14,124.8,257.94,165.77-.04.29-.13.57-.11.88.17,2.2,2.1,3.85,4.3,3.67,2.2-.17,3.85-2.1,3.68-4.3Zm-6.23.49c-.1-1.23.83-2.31,2.06-2.41,1.24-.1,2.32.83,2.42,2.06s-.83,2.32-2.06,2.42c-1.23.1-2.32-.83-2.41-2.07Z"></path><path class="cls-20" d="m1068.02,1604.11c71.56,17.08,145.02,27.07,218.34,29.69.48.01.89-.36.9-.84.01-.47-.36-.89-.84-.91-73.18-2.61-146.49-12.58-217.9-29.61.01-.19.08-.37.07-.56-.17-2.19-2.1-3.84-4.3-3.66-2.2.17-3.85,2.1-3.67,4.29s2.1,3.84,4.3,3.67c1.37-.11,2.47-.94,3.1-2.06Zm-5.65-1.75c-.1-1.23.83-2.31,2.06-2.41,1.23-.1,2.32.83,2.41,2.06s-.83,2.32-2.06,2.42c-1.23.1-2.32-.83-2.41-2.07Z"></path><path class="cls-16" d="m669.84,1146.09c-.17-2.19-2.1-3.84-4.3-3.66-.67.05-1.26.31-1.79.65-59.04-60.54-109.27-129.88-149.29-206.11-39.81-75.83-68.61-156.73-85.62-240.44-9.65-47.53-15.51-96.11-17.39-144.44-.07-.46-.43-.86-.91-.84-.48.02-.86.43-.84.91.46,11.72,1.15,23.46,2.07,35.19,2.88,36.73,8.03,73.44,15.35,109.52,17.03,83.88,45.9,164.93,85.78,240.91,40.1,76.39,90.45,145.87,149.62,206.55-.44.7-.72,1.5-.66,2.39.17,2.2,2.1,3.85,4.3,3.67,2.2-.17,3.85-2.1,3.67-4.3Zm-6.22.49c-.1-1.23.83-2.31,2.06-2.41s2.32.83,2.41,2.06-.83,2.32-2.06,2.42c-1.23.1-2.32-.83-2.41-2.07Z"></path><path class="cls-4" d="m451.97,1209.18c.39-.3.46-.83.19-1.23C251.17,936.08,170.89,609.48,231.81,311.84c0,0,0,0,0,0,2.2-.17,3.85-2.1,3.67-4.3-.17-2.2-2.1-3.84-4.3-3.67-2.2.17-3.84,2.1-3.67,4.3.12,1.58,1.17,2.85,2.56,3.39-18.79,91.84-24.17,186.42-16.72,281.29,16.73,213.13,98.13,427.76,237.39,616.14.29.39.84.48,1.23.19ZM229.27,308.03c-.1-1.23.83-2.31,2.06-2.41,1.23-.1,2.31.83,2.41,2.06s-.83,2.31-2.06,2.41-2.31-.83-2.41-2.06Z"></path><path class="cls-8" d="m73.68,938.62c-.17-2.19-2.1-3.84-4.3-3.66-.04,0-.08.03-.12.03C-.93,722.49-16.75,494.65,23.53,276.01c.1-.52-.23-.93-.7-1.02-.48-.09-.94.23-1.02.7C.9,389.14-4.92,505.04,4.11,620.03c8.39,106.92,29.63,213.04,63.5,315.56-1.22.76-2.02,2.13-1.9,3.66.17,2.2,2.1,3.85,4.3,3.67,2.2-.17,3.85-2.1,3.68-4.3Zm-6.23.49c-.1-1.23.83-2.31,2.06-2.41s2.32.83,2.42,2.06-.83,2.32-2.06,2.42c-1.23.1-2.32-.83-2.41-2.07Z"></path><path class="cls-6" d="m1196.89,1076.09c-.17-2.19-2.1-3.84-4.3-3.66-1.55.12-2.79,1.14-3.35,2.49-163.98-39.96-305.89-154.91-379.7-307.66-.21-.44-.74-.62-1.17-.41-.34.16-.52.5-.49.85,0,.1.04.21.08.31,74.05,153.25,216.44,268.58,380.96,308.62,0,.03-.01.05,0,.08.17,2.2,2.1,3.85,4.3,3.67,2.2-.17,3.85-2.1,3.67-4.3Zm-6.22.49c-.1-1.23.83-2.31,2.06-2.41,1.23-.1,2.32.83,2.41,2.06s-.83,2.32-2.06,2.42c-1.23.1-2.32-.83-2.41-2.07Z"></path></g></g></g></g></g></svg> 